<?xml version="1.0" encoding="UTF-8" standalone="no"?>
<!-- Created with Inkscape (http://www.inkscape.org/) -->

<svg
   width="22.082016mm"
   height="22.395767mm"
   viewBox="0 0 22.082016 22.395767"
   version="1.1"
   id="svg5"
   xml:space="preserve"
   xmlns="http://www.w3.org/2000/svg"
   xmlns:svg="http://www.w3.org/2000/svg"><defs
     id="defs2" /><g
     id="layer1"
     transform="translate(-140.57796,-132.87757)"><g
       id="g1153"><ellipse
         style="fill:#00ccff;fill-opacity:0;stroke:#00ccff;stroke-width:1.702;stroke-linecap:round;stroke-linejoin:round;stroke-dasharray:none;stroke-opacity:1"
         id="path926"
         cx="151.53246"
         cy="143.79579"
         rx="8.699007"
         ry="8.6989994" /><g
         id="g1110"><path
           style="fill:#00ccff;fill-opacity:0;stroke:#00ccff;stroke-width:2.271;stroke-linecap:square;stroke-miterlimit:0;stroke-dasharray:none"
           d="m 141.72206,142.95899 c 0,0 0.0138,-1.81498 1.38884,-3.47657"
           id="path1101" /><path
           style="fill:#00ccff;fill-opacity:0;stroke:#00ccff;stroke-width:2.271;stroke-linecap:square;stroke-miterlimit:0;stroke-dasharray:none"
           d="m 146.33255,135.77079 c 0,0 1.17509,-1.80218 4.31503,-1.7569"
           id="path1103" /><path
           style="fill:#00ccff;fill-opacity:0;stroke:#00ccff;stroke-width:1.86883;stroke-linecap:square;stroke-miterlimit:0;stroke-dasharray:none"
           d="m 144.22411,137.98992 c 0,0 0.57452,-0.54187 1.51412,-1.66"
           id="path1105" /></g><g
         id="g1118"
         transform="rotate(90,151.59577,143.94179)"><path
           style="fill:#00ccff;fill-opacity:0;stroke:#00ccff;stroke-width:2.271;stroke-linecap:square;stroke-miterlimit:0;stroke-dasharray:none"
           d="m 141.72206,142.95899 c 0,0 0.0138,-1.81498 1.38884,-3.47657"
           id="path1112" /><path
           style="fill:#00ccff;fill-opacity:0;stroke:#00ccff;stroke-width:2.271;stroke-linecap:square;stroke-miterlimit:0;stroke-dasharray:none"
           d="m 146.33255,135.77079 c 0,0 1.17509,-1.80218 4.31503,-1.7569"
           id="path1114" /><path
           style="fill:#00ccff;fill-opacity:0;stroke:#00ccff;stroke-width:1.86883;stroke-linecap:square;stroke-miterlimit:0;stroke-dasharray:none"
           d="m 144.22411,137.98992 c 0,0 0.57452,-0.54187 1.51412,-1.66"
           id="path1116" /></g><g
         id="g1126"
         transform="rotate(180,151.61034,144.07547)"><path
           style="fill:#00ccff;fill-opacity:0;stroke:#00ccff;stroke-width:2.271;stroke-linecap:square;stroke-miterlimit:0;stroke-dasharray:none"
           d="m 141.72206,142.95899 c 0,0 0.0138,-1.81498 1.38884,-3.47657"
           id="path1120" /><path
           style="fill:#00ccff;fill-opacity:0;stroke:#00ccff;stroke-width:2.271;stroke-linecap:square;stroke-miterlimit:0;stroke-dasharray:none"
           d="m 146.33255,135.77079 c 0,0 1.17509,-1.80218 4.31503,-1.7569"
           id="path1122" /><path
           style="fill:#00ccff;fill-opacity:0;stroke:#00ccff;stroke-width:1.86883;stroke-linecap:square;stroke-miterlimit:0;stroke-dasharray:none"
           d="m 144.22411,137.98992 c 0,0 0.57452,-0.54187 1.51412,-1.66"
           id="path1124" /></g><g
         id="g1134"
         transform="rotate(-90,151.77249,144.06616)"><path
           style="fill:#00ccff;fill-opacity:0;stroke:#00ccff;stroke-width:2.271;stroke-linecap:square;stroke-miterlimit:0;stroke-dasharray:none"
           d="m 141.72206,142.95899 c 0,0 0.0138,-1.81498 1.38884,-3.47657"
           id="path1128" /><path
           style="fill:#00ccff;fill-opacity:0;stroke:#00ccff;stroke-width:2.271;stroke-linecap:square;stroke-miterlimit:0;stroke-dasharray:none"
           d="m 146.33255,135.77079 c 0,0 1.17509,-1.80218 4.31503,-1.7569"
           id="path1130" /><path
           style="fill:#00ccff;fill-opacity:0;stroke:#00ccff;stroke-width:1.86883;stroke-linecap:square;stroke-miterlimit:0;stroke-dasharray:none"
           d="m 144.22411,137.98992 c 0,0 0.57452,-0.54187 1.51412,-1.66"
           id="path1132" /></g></g></g></svg>
